<?xml version="1.0" encoding="utf-8"?>
<svg viewBox="6.837 6.045 623.6 91.5" xmlns="http://www.w3.org/2000/svg">
  <defs>
    <style type="text/css">	
    .st0{clip-path:#fff;fill:#fff;}
    .st1{fill:none;stroke:#fff;stroke-width:1.6584;stroke-miterlimit:10;}
    .st2{clip-path:#fff;fill:#fff;}
    .st3{clip-path:#fff;fill:#fff;}
    .st4{clip-path:#fff;fill:#fff;}
    .st5{clip-path:#fff;fill:#fff;}
    .st6{clip-path:#fff;fill:#fff;}
</style>
  </defs>
  <g transform="matrix(1, 0, 0, 1, -8.262713, -275.454834)">
    <g>
      <defs>
        <path id="SVGID_1_" d="M209.2,281.7v57.6c0,4.7-3.2,7.2-9.5,7.2h-47c-6.3,0-9.5-2.5-9.5-7.2v-57.6H129v52.6l14.6,22.2 c2.7,0.6,5.7,1,9.2,1h50c4.3,0,7.8-0.4,10.5-1.3s4.8-2.2,6.3-3.8c1.5-1.6,2.6-3.5,3.1-5.8c0.5-2.2,0.8-4.7,0.8-7.4v-57.5 L209.2,281.7L209.2,281.7z"/>
      </defs>
      <clipPath id="SVGID_00000044153682910480376140000014424583407122097052_">
        <path d="M209.2,281.7v57.6c0,4.7-3.2,7.2-9.5,7.2h-47c-6.3,0-9.5-2.5-9.5-7.2v-57.6H129v52.6l14.6,22.2 c2.7,0.6,5.7,1,9.2,1h50c4.3,0,7.8-0.4,10.5-1.3s4.8-2.2,6.3-3.8c1.5-1.6,2.6-3.5,3.1-5.8c0.5-2.2,0.8-4.7,0.8-7.4v-57.5 L209.2,281.7L209.2,281.7z" transform="matrix(1, 0, 0, 1, 0, 0)" style="overflow: visible;"/>
      </clipPath>
      <linearGradient id="SVGID_00000106148380397206650920000009092715402272057269_" gradientUnits="userSpaceOnUse" x1="-2296.9956" y1="870.0242" x2="-2294.6504" y2="870.0242" gradientTransform="matrix(0 -32.3234 32.3234 0 -27945.8867 -73889.2031)">
        <stop offset="0" style="stop-color:#fff"/>
        <stop offset="0.0726" style="stop-color:#fff"/>
        <stop offset="0.1765" style="stop-color:#fff"/>
        <stop offset="0.283" style="stop-color:#fff"/>
        <stop offset="0.393" style="stop-color:#fff"/>
        <stop offset="0.5117" style="stop-color:#fff"/>
        <stop offset="0.5307" style="stop-color:#fff"/>
        <stop offset="0.5509" style="stop-color:#fff"/>
        <stop offset="0.5717" style="stop-color:#fff"/>
        <stop offset="0.5927" style="stop-color:#fff"/>
        <stop offset="0.6017" style="stop-color:#fff"/>
        <stop offset="0.6136" style="stop-color:#fff"/>
        <stop offset="0.6401" style="stop-color:#fff"/>
        <stop offset="0.6681" style="stop-color:#fff"/>
        <stop offset="0.6997" style="stop-color:#fff"/>
        <stop offset="0.7304" style="stop-color:#fff"/>
        <stop offset="0.811" style="stop-color:#fff"/>
        <stop offset="0.8976" style="stop-color:#fff"/>
        <stop offset="1" style="stop-color:#fff"/>
      </linearGradient>
      <rect x="129" y="281.7" style="clip-path:url(#SVGID_00000044153682910480376140000014424583407122097052_);fill:url(#SVGID_00000106148380397206650920000009092715402272057269_);" width="94.5" height="75.8"/>
    </g>
  </g>
  <g transform="matrix(1, 0, 0, 1, -8.262713, -275.454834)">
    <path class="st1" d="M209.2,339.4c0,4.7-3.2,7.2-9.5,7.2h-47c-6.3,0-9.5-2.5-9.5-7.2v-57.6H129v52.6l14.6,22.2c2.7,0.6,5.7,1,9.2,1 h50c4.3,0,7.8-0.4,10.5-1.3s4.8-2.2,6.3-3.8c1.5-1.6,2.6-3.5,3.1-5.8s0.8-4.7,0.8-7.4v-57.5h-14.3L209.2,339.4L209.2,339.4z"/>
  </g>
  <g transform="matrix(1, 0, 0, 1, -8.262713, -275.454834)">
    <g>
      <defs>
        <path id="SVGID_00000012450326221825738280000014949483255428159933_" d="M451,293.5h50c6.3,0,9.5,2.3,9.5,7v5.6 c0,4.7-3.2,7-9.5,7h-50V293.5z M436.7,281.7v75.7H451v-33.2h39.9l17.7,33.8h0.3l8.3-12.7L506,324c6.7-0.6,11.5-2.6,14.4-5.9 s4.3-7.3,4.3-12.2v-6c0-2.7-0.4-5.2-1.3-7.4c-0.9-2.2-2.2-4.1-4.1-5.8c-1.9-1.6-4.4-2.9-7.4-3.8c-3-0.9-6.7-1.3-11-1.3 L436.7,281.7L436.7,281.7z"/>
      </defs>
      <clipPath id="SVGID_00000114767047969378399470000001314705778779718072_">
        <path d="M451,293.5h50c6.3,0,9.5,2.3,9.5,7v5.6 c0,4.7-3.2,7-9.5,7h-50V293.5z M436.7,281.7v75.7H451v-33.2h39.9l17.7,33.8h0.3l8.3-12.7L506,324c6.7-0.6,11.5-2.6,14.4-5.9 s4.3-7.3,4.3-12.2v-6c0-2.7-0.4-5.2-1.3-7.4c-0.9-2.2-2.2-4.1-4.1-5.8c-1.9-1.6-4.4-2.9-7.4-3.8c-3-0.9-6.7-1.3-11-1.3 L436.7,281.7L436.7,281.7z" transform="matrix(1, 0, 0, 1, 0, 0)" style="overflow: visible;"/>
      </clipPath>
      <linearGradient id="SVGID_00000080175996685049254900000008324290143131472816_" gradientUnits="userSpaceOnUse" x1="-2296.7397" y1="874.9266" x2="-2294.3955" y2="874.9266" gradientTransform="matrix(0 -32.5459 32.5459 0 -27994.5234 -74391.375)">
        <stop offset="0" style="stop-color:#fff"/>
        <stop offset="0.0726" style="stop-color:#fff"/>
        <stop offset="0.1765" style="stop-color:#fff"/>
        <stop offset="0.283" style="stop-color:#fff"/>
        <stop offset="0.393" style="stop-color:#fff"/>
        <stop offset="0.5117" style="stop-color:#fff"/>
        <stop offset="0.5307" style="stop-color:#fff"/>
        <stop offset="0.5509" style="stop-color:#fff"/>
        <stop offset="0.5717" style="stop-color:#fff"/>
        <stop offset="0.5927" style="stop-color:#fff"/>
        <stop offset="0.6017" style="stop-color:#fff"/>
        <stop offset="0.6136" style="stop-color:#fff"/>
        <stop offset="0.6401" style="stop-color:#fff"/>
        <stop offset="0.6681" style="stop-color:#fff"/>
        <stop offset="0.6997" style="stop-color:#fff"/>
        <stop offset="0.7304" style="stop-color:#fff"/>
        <stop offset="0.811" style="stop-color:#fff"/>
        <stop offset="0.8976" style="stop-color:#fff"/>
        <stop offset="1" style="stop-color:#fff"/>
      </linearGradient>
      <rect x="436.7" y="281.7" style="clip-path:url(#SVGID_00000114767047969378399470000001314705778779718072_);fill:url(#SVGID_00000080175996685049254900000008324290143131472816_);" width="88.1" height="76.3"/>
    </g>
  </g>
  <g transform="matrix(1, 0, 0, 1, -8.262713, -275.454834)">
    <path class="st1" d="M506.1,324.1c6.7-0.6,11.5-2.6,14.4-5.9s4.3-7.3,4.3-12.2v-6c0-2.7-0.4-5.2-1.3-7.4c-0.9-2.2-2.2-4.1-4.1-5.8 c-1.9-1.6-4.4-2.9-7.4-3.8s-6.7-1.3-11-1.3h-64.3v75.7H451v-33.2h39.9l17.7,33.8h0.3l8.3-12.7L506.1,324.1z M451,313.1v-19.6h50 c6.3,0,9.5,2.3,9.5,7v5.6c0,4.7-3.2,7-9.5,7H451z"/>
  </g>
  <g transform="matrix(1, 0, 0, 1, -8.262713, -275.454834)">
    <g>
      <defs>
        <path id="SVGID_00000163774368231628793990000011450065049986496674_" d="M244.7,293h55.1c2.7,0,4.9,0.2,6.6,0.5 c1.8,0.4,3.2,1,4.2,1.8c1,0.9,1.8,2,2.2,3.4c0.4,1.4,0.6,3.2,0.6,5.4V336c0,2-0.2,3.7-0.6,5.1s-1.2,2.4-2.2,3.2 c-1,0.8-2.4,1.4-4.2,1.7c-1.8,0.4-4,0.5-6.6,0.5h-55.1L244.7,293L244.7,293z M230.4,281.8v75.7h69.4c5.4,0,9.9-0.5,13.4-1.4 c3.6-0.9,6.5-2.3,8.6-4.1c2.2-1.8,3.7-4,4.6-6.7s1.3-5.8,1.3-9.4v-31.7c0-3.7-0.5-7-1.3-9.8c-0.9-2.8-2.4-5.1-4.6-7 c-2.1-1.9-5-3.3-8.6-4.2c-3.6-0.9-8.1-1.4-13.4-1.4H230.4z"/>
      </defs>
      <clipPath id="SVGID_00000014628119317724500350000009582087092744424895_">
        <path d="M244.7,293h55.1c2.7,0,4.9,0.2,6.6,0.5 c1.8,0.4,3.2,1,4.2,1.8c1,0.9,1.8,2,2.2,3.4c0.4,1.4,0.6,3.2,0.6,5.4V336c0,2-0.2,3.7-0.6,5.1s-1.2,2.4-2.2,3.2 c-1,0.8-2.4,1.4-4.2,1.7c-1.8,0.4-4,0.5-6.6,0.5h-55.1L244.7,293L244.7,293z M230.4,281.8v75.7h69.4c5.4,0,9.9-0.5,13.4-1.4 c3.6-0.9,6.5-2.3,8.6-4.1c2.2-1.8,3.7-4,4.6-6.7s1.3-5.8,1.3-9.4v-31.7c0-3.7-0.5-7-1.3-9.8c-0.9-2.8-2.4-5.1-4.6-7 c-2.1-1.9-5-3.3-8.6-4.2c-3.6-0.9-8.1-1.4-13.4-1.4H230.4z" transform="matrix(1, 0, 0, 1, 0, 0)" style="overflow: visible;"/>
      </clipPath>
      <linearGradient id="SVGID_00000011723443691735571580000007608098475670499234_" gradientUnits="userSpaceOnUse" x1="-2297.0527" y1="871.9485" x2="-2294.7073" y2="871.9485" gradientTransform="matrix(0 -32.2769 32.2769 0 -27864.7461 -73784.2422)">
        <stop offset="0" style="stop-color:#fff"/>
        <stop offset="0.0726" style="stop-color:#fff"/>
        <stop offset="0.1765" style="stop-color:#fff"/>
        <stop offset="0.283" style="stop-color:#fff"/>
        <stop offset="0.393" style="stop-color:#fff"/>
        <stop offset="0.5117" style="stop-color:#fff"/>
        <stop offset="0.5307" style="stop-color:#fff"/>
        <stop offset="0.5509" style="stop-color:#fff"/>
        <stop offset="0.5717" style="stop-color:#fff"/>
        <stop offset="0.5927" style="stop-color:#fff"/>
        <stop offset="0.6017" style="stop-color:#fff"/>
        <stop offset="0.6136" style="stop-color:#fff"/>
        <stop offset="0.6401" style="stop-color:#fff"/>
        <stop offset="0.6681" style="stop-color:#fff"/>
        <stop offset="0.6997" style="stop-color:#fff"/>
        <stop offset="0.7304" style="stop-color:#fff"/>
        <stop offset="0.811" style="stop-color:#fff"/>
        <stop offset="0.8976" style="stop-color:#fff"/>
        <stop offset="1" style="stop-color:#fff"/>
      </linearGradient>
      <rect x="230.4" y="281.8" style="clip-path:url(#SVGID_00000014628119317724500350000009582087092744424895_);fill:url(#SVGID_00000011723443691735571580000007608098475670499234_);" width="97.3" height="75.7"/>
    </g>
  </g>
  <g transform="matrix(1, 0, 0, 1, -8.262713, -275.454834)">
    <path class="st1" d="M230.4,357.5v-75.7h69.4c5.4,0,9.9,0.5,13.4,1.4c3.6,0.9,6.5,2.3,8.6,4.2c2.2,1.9,3.7,4.2,4.6,7 s1.3,6.1,1.3,9.8v31.7c0,3.6-0.5,6.7-1.3,9.4c-0.9,2.7-2.4,4.9-4.6,6.7c-2.1,1.8-5,3.2-8.6,4.1s-8.1,1.4-13.4,1.4H230.4z M313.4,304.2c0-2.1-0.2-3.9-0.6-5.4c-0.4-1.4-1.2-2.6-2.2-3.4c-1-0.9-2.4-1.5-4.2-1.8c-1.8-0.4-4-0.5-6.6-0.5h-55.1v53.6h55.1 c2.7,0,4.9-0.2,6.6-0.5c1.8-0.4,3.2-0.9,4.2-1.7c1-0.8,1.8-1.9,2.2-3.2c0.4-1.4,0.6-3,0.6-5.1V304.2z"/>
  </g>
  <g transform="matrix(1, 0, 0, 1, -8.262713, -275.454834)">
    <g>
      <defs>
        <path id="SVGID_00000003093009996329462770000001855004488756469384_" d="M414.9,281.7v57.8c0,4.7-3.2,7-9.5,7h-47 c-6.3,0-9.5-2.3-9.5-7v-57.8h-14.3v57.5c0,2.7,0.4,5.2,1.3,7.4c0.9,2.2,2.2,4.1,4.1,5.8c1.9,1.6,4.4,2.9,7.4,3.8s6.7,1.3,11,1.3 h50c4.3,0,7.8-0.4,10.5-1.3s4.8-2.2,6.3-3.8c1.5-1.6,2.6-3.5,3.1-5.8c0.5-2.2,0.8-4.7,0.8-7.4v-57.5H414.9z"/>
      </defs>
      <clipPath id="SVGID_00000128458299362327230140000013150381539781026741_">
        <path d="M414.9,281.7v57.8c0,4.7-3.2,7-9.5,7h-47 c-6.3,0-9.5-2.3-9.5-7v-57.8h-14.3v57.5c0,2.7,0.4,5.2,1.3,7.4c0.9,2.2,2.2,4.1,4.1,5.8c1.9,1.6,4.4,2.9,7.4,3.8s6.7,1.3,11,1.3 h50c4.3,0,7.8-0.4,10.5-1.3s4.8-2.2,6.3-3.8c1.5-1.6,2.6-3.5,3.1-5.8c0.5-2.2,0.8-4.7,0.8-7.4v-57.5H414.9z" transform="matrix(1, 0, 0, 1, 0, 0)" style="overflow: visible;"/>
      </clipPath>
      <linearGradient id="SVGID_00000114779319196559697350000000167937558036638600_" gradientUnits="userSpaceOnUse" x1="-2297.0227" y1="873.7221" x2="-2294.676" y2="873.7221" gradientTransform="matrix(0 -32.3017 32.3017 0 -27840.7598 -73840.2422)">
        <stop offset="0" style="stop-color:#fff"/>
        <stop offset="0.0726" style="stop-color:#fff"/>
        <stop offset="0.1765" style="stop-color:#fff"/>
        <stop offset="0.283" style="stop-color:#fff"/>
        <stop offset="0.393" style="stop-color:#fff"/>
        <stop offset="0.5117" style="stop-color:#fff"/>
        <stop offset="0.5307" style="stop-color:#fff"/>
        <stop offset="0.5509" style="stop-color:#fff"/>
        <stop offset="0.5717" style="stop-color:#fff"/>
        <stop offset="0.5927" style="stop-color:#fff"/>
        <stop offset="0.6017" style="stop-color:#fff"/>
        <stop offset="0.6136" style="stop-color:#fff"/>
        <stop offset="0.6401" style="stop-color:#fff"/>
        <stop offset="0.6681" style="stop-color:#fff"/>
        <stop offset="0.6997" style="stop-color:#fff"/>
        <stop offset="0.7304" style="stop-color:#fff"/>
        <stop offset="0.811" style="stop-color:#fff"/>
        <stop offset="0.8976" style="stop-color:#fff"/>
        <stop offset="1" style="stop-color:#fff"/>
      </linearGradient>
      <rect x="334.7" y="281.7" style="clip-path:url(#SVGID_00000128458299362327230140000013150381539781026741_);fill:url(#SVGID_00000114779319196559697350000000167937558036638600_);" width="94.5" height="75.8"/>
    </g>
  </g>
  <g transform="matrix(1, 0, 0, 1, -8.262713, -275.454834)">
    <path class="st1" d="M358.4,357.5c-4.3,0-8-0.4-11-1.3s-5.5-2.2-7.4-3.8c-1.9-1.6-3.3-3.5-4.1-5.8c-0.9-2.2-1.3-4.7-1.3-7.4v-57.5 H349v57.8c0,4.7,3.2,7,9.5,7h47c6.3,0,9.5-2.3,9.5-7v-57.8h14.3v57.5c0,2.7-0.3,5.2-0.8,7.4c-0.5,2.2-1.6,4.1-3.1,5.8 c-1.5,1.6-3.7,2.9-6.3,3.8c-2.7,0.9-6.2,1.3-10.5,1.3H358.4z"/>
  </g>
  <g transform="matrix(1, 0, 0, 1, -8.262713, -275.454834)">
    <g>
      <defs>
        <polygon id="SVGID_00000022529191172342165220000014726139165590100395_" points="76.1,281.5 15.8,372 15.1,373 31.4,373 &#10;&#9;&#9;&#9;&#9;41.7,357.6 75.4,357.6 83.6,357.6 76.2,346.5 49,346.5 80.9,298.7 81.2,299.1 130.5,373 146.7,373 85.7,281.5 &#9;&#9;&#9;"/>
      </defs>
      <clipPath id="SVGID_00000060720764744027485230000003426518269079439760_">
        <polygon points="76.1,281.5 15.8,372 15.1,373 31.4,373 &#10;&#9;&#9;&#9;&#9;41.7,357.6 75.4,357.6 83.6,357.6 76.2,346.5 49,346.5 80.9,298.7 81.2,299.1 130.5,373 146.7,373 85.7,281.5 &#9;&#9;&#9;" transform="matrix(1, 0, 0, 1, 0, 0)" style="overflow: visible;"/>
      </clipPath>
      <linearGradient id="SVGID_00000005947625287867364750000017880960018327073719_" gradientUnits="userSpaceOnUse" x1="-2290.5403" y1="856.9569" x2="-2288.1946" y2="856.9569" gradientTransform="matrix(0 -39.0064 39.0064 0 -33345.9062 -88972.7344)">
        <stop offset="0" style="stop-color:#fff"/>
        <stop offset="0.0726" style="stop-color:#fff"/>
        <stop offset="0.1765" style="stop-color:#fff"/>
        <stop offset="0.283" style="stop-color:#fff"/>
        <stop offset="0.393" style="stop-color:#fff"/>
        <stop offset="0.5117" style="stop-color:#fff"/>
        <stop offset="0.5307" style="stop-color:#fff"/>
        <stop offset="0.5509" style="stop-color:#fff"/>
        <stop offset="0.5717" style="stop-color:#fff"/>
        <stop offset="0.5927" style="stop-color:#fff"/>
        <stop offset="0.6017" style="stop-color:#fff"/>
        <stop offset="0.6136" style="stop-color:#fff"/>
        <stop offset="0.6401" style="stop-color:#fff"/>
        <stop offset="0.6681" style="stop-color:#fff"/>
        <stop offset="0.6997" style="stop-color:#fff"/>
        <stop offset="0.7304" style="stop-color:#fff"/>
        <stop offset="0.811" style="stop-color:#fff"/>
        <stop offset="0.8976" style="stop-color:#fff"/>
        <stop offset="1" style="stop-color:#fff"/>
      </linearGradient>
      <rect x="15.1" y="281.5" style="clip-path:url(#SVGID_00000060720764744027485230000003426518269079439760_);fill:url(#SVGID_00000005947625287867364750000017880960018327073719_);" width="131.6" height="91.5"/>
    </g>
  </g>
  <polygon class="st1" points="7.537 96.545 6.837 97.545 23.137 97.545 33.437 82.145 67.137 82.145 75.337 82.145 67.937 71.045 40.737 71.045 72.637 23.245 72.937 23.645 122.237 97.545 138.437 97.545 77.437 6.045 67.837 6.045"/>
  <g transform="matrix(1, 0, 0, 1, -8.262713, -275.454834)">
    <g>
      <defs>
        <polygon id="SVGID_00000109730038332709255510000014891065457299879083_" points="568.1,281.5 507.1,373 523.4,373 572.7,299.1 &#10;&#9;&#9;&#9;&#9;572.9,298.7 604.9,346.5 577.7,346.5 570.3,357.6 578.5,357.6 612.2,357.6 622.5,373 638.7,373 638.1,372 577.8,281.5 &#9;&#9;&#9;"/>
      </defs>
      <clipPath id="SVGID_00000156583076022776788200000008428264060249100439_">
        <polygon points="568.1,281.5 507.1,373 523.4,373 572.7,299.1 &#10;&#9;&#9;&#9;&#9;572.9,298.7 604.9,346.5 577.7,346.5 570.3,357.6 578.5,357.6 612.2,357.6 622.5,373 638.7,373 638.1,372 577.8,281.5 &#9;&#9;&#9;" transform="matrix(1, 0, 0, 1, 0, 0)" style="overflow: visible;"/>
      </clipPath>
      <linearGradient id="SVGID_00000101821533405520389970000009170647447321952925_" gradientUnits="userSpaceOnUse" x1="-2290.5403" y1="864.1927" x2="-2288.1946" y2="864.1927" gradientTransform="matrix(0 -39.0064 39.0064 0 -33136.1484 -88972.7344)">
        <stop offset="0" style="stop-color:#fff"/>
        <stop offset="0.0726" style="stop-color:#fff"/>
        <stop offset="0.1765" style="stop-color:#fff"/>
        <stop offset="0.283" style="stop-color:#fff"/>
        <stop offset="0.393" style="stop-color:#fff"/>
        <stop offset="0.5117" style="stop-color:#fff"/>
        <stop offset="0.5307" style="stop-color:#fff"/>
        <stop offset="0.5509" style="stop-color:#fff"/>
        <stop offset="0.5717" style="stop-color:#fff"/>
        <stop offset="0.5927" style="stop-color:#fff"/>
        <stop offset="0.6017" style="stop-color:#fff"/>
        <stop offset="0.6136" style="stop-color:#fff"/>
        <stop offset="0.6401" style="stop-color:#fff"/>
        <stop offset="0.6681" style="stop-color:#fff"/>
        <stop offset="0.6997" style="stop-color:#fff"/>
        <stop offset="0.7304" style="stop-color:#fff"/>
        <stop offset="0.811" style="stop-color:#fff"/>
        <stop offset="0.8976" style="stop-color:#fff"/>
        <stop offset="1" style="stop-color:#fff"/>
      </linearGradient>
      <rect x="507.1" y="281.5" style="clip-path:url(#SVGID_00000156583076022776788200000008428264060249100439_);fill:url(#SVGID_00000101821533405520389970000009170647447321952925_);" width="131.6" height="91.5"/>
    </g>
  </g>
  <polygon class="st1" points="629.837 96.545 630.437 97.545 614.237 97.545 603.937 82.145 570.237 82.145 562.037 82.145 569.437 71.045 596.637 71.045 564.637 23.245 564.437 23.645 515.137 97.545 498.837 97.545 559.837 6.045 569.537 6.045"/>
</svg>